<?xml version="1.0" encoding="UTF-8"?>
<svg width="30px" height="30px" viewBox="0 0 30 30" version="1.1" xmlns="http://www.w3.org/2000/svg" xmlns:xlink="http://www.w3.org/1999/xlink">
    <!-- Generator: Sketch 57.1 (83088) - https://sketch.com -->
    <title>City List</title>
    <desc>Created with Sketch.</desc>
    <g id="City-List" stroke="none" stroke-width="1" fill="none" fill-rule="evenodd">
        <g id="1712403_city_locations_map_skyline_town_icon" transform="translate(2.000000, 2.000000)" fill="#225FAD" fill-rule="nonzero">
            <path d="M24.0384615,15.3846154 L21.1538462,15.3846154 L21.1538462,11.5384615 C21.1538462,11.0076923 20.7230769,10.5769231 20.1923077,10.5769231 L17.3076923,10.5769231 C16.7769231,10.5769231 16.3461538,11.0076923 16.3461538,11.5384615 L16.3461538,18.2692308 L12.5,18.2692308 L12.5,9.61538462 C12.5,9.08461538 12.0692308,8.65384615 11.5384615,8.65384615 L10.5769231,8.65384615 L10.5769231,5.76923077 C10.5769231,5.23846154 10.1461538,4.80769231 9.61538462,4.80769231 L8.65384615,4.80769231 L8.65384615,0.961538462 C8.65384615,0.430769231 8.22307692,0 7.69230769,0 C7.16153846,0 6.73076923,0.430769231 6.73076923,0.961538462 L6.73076923,4.80769231 L5.76923077,4.80769231 C5.23846154,4.80769231 4.80769231,5.23846154 4.80769231,5.76923077 L4.80769231,8.65384615 L3.84615385,8.65384615 C3.31538462,8.65384615 2.88461538,9.08461538 2.88461538,9.61538462 L2.88461538,13.4615385 L0.961538462,13.4615385 C0.430769231,13.4615385 0,13.8923077 0,14.4230769 L0,24.0384615 C0,24.5692308 0.430769231,25 0.961538462,25 L24.0384615,25 C24.5692308,25 25,24.5692308 25,24.0384615 L25,16.3461538 C25,15.8153846 24.5692308,15.3846154 24.0384615,15.3846154 Z" id="Path"></path>
            <path d="M19.2307692,7.69230769 C20.8216346,7.69230769 22.1153846,6.39855769 22.1153846,4.80769231 C22.1153846,3.21682692 20.8216346,1.92307692 19.2307692,1.92307692 C17.6399038,1.92307692 16.3461538,3.21682692 16.3461538,4.80769231 C16.3461538,6.39855769 17.6399038,7.69230769 19.2307692,7.69230769 Z" id="Path"></path>
        </g>
    </g>
</svg>