<?xml version="1.0" encoding="UTF-8"?>
<svg width="30px" height="30px" viewBox="0 0 30 30" version="1.1" xmlns="http://www.w3.org/2000/svg" xmlns:xlink="http://www.w3.org/1999/xlink">
    <!-- Generator: Sketch 57.1 (83088) - https://sketch.com -->
    <title>Class List</title>
    <desc>Created with Sketch.</desc>
    <g id="Class-List" stroke="none" stroke-width="1" fill="none" fill-rule="evenodd">
        <g id="5187409_board_class_education_learning_mathematics_icon" transform="translate(2.000000, 3.000000)" fill="#444444" fill-rule="nonzero">
            <path d="M24.3824111,0.217892327 L0.518774704,0.217892327 C0.228262115,0.217892327 0,0.451315627 0,0.736667031 L0,17.3737439 C0,17.6590953 0.228262115,17.8925186 0.518774704,17.8925186 L6.05928475,17.8925186 L4.38884541,22.6081946 L2.82732846,22.6081946 C2.54197706,22.6081946 2.30855376,22.8416496 2.30855376,23.1269693 C2.30855376,23.4122891 2.54197706,23.645744 2.82732846,23.645744 L6.68182072,23.645744 C6.96714048,23.645744 7.20059543,23.4122891 7.20059543,23.1269693 C7.20059543,22.8416496 6.96714048,22.6081946 6.68182072,22.6081946 L5.48864523,22.6081946 L7.15908458,17.8925186 L17.7369084,17.8925186 L19.4073477,22.6081946 L18.2141722,22.6081946 C17.9288525,22.6081946 17.6953975,22.8416496 17.6953975,23.1269693 C17.6953975,23.4122891 17.9288525,23.645744 18.2141722,23.645744 L22.0686645,23.645744 C22.3591771,23.645744 22.5874392,23.4122891 22.5874392,23.1269693 C22.5874392,22.8416496 22.3591771,22.6081946 22.0686645,22.6081946 L20.5071475,22.6081946 L18.8367082,17.8925186 L24.3824111,17.8925186 C24.6677308,17.8925186 24.9011858,17.6590953 24.9011858,17.3737439 L24.9011858,0.736667031 C24.9011858,0.451315627 24.6677308,0.217892327 24.3824111,0.217892327 Z M8.0150755,8.53383438 C8.30039526,8.53383438 8.5338502,8.76728933 8.5338502,9.05260908 C8.5338502,9.33792884 8.30039526,9.57138379 8.0150755,9.57138379 L6.62476308,9.57138379 L6.62476308,10.7490125 L8.0150755,10.7490125 C8.30039526,10.7490125 8.5338502,10.9824674 8.5338502,11.2677872 C8.5338502,11.5531069 8.30039526,11.7865619 8.0150755,11.7865619 L6.10598838,11.7865619 C5.82063697,11.7865619 5.58721367,11.5531069 5.58721367,11.2677872 L5.58721367,6.83743093 C5.58721367,6.55211117 5.82063697,6.31865623 6.10598838,6.31865623 L8.0150755,6.31865623 C8.30039526,6.31865623 8.5338502,6.55211117 8.5338502,6.83743093 C8.5338502,7.12794352 8.30039526,7.35620563 8.0150755,7.35620563 L6.62476308,7.35620563 L6.62476308,8.53383433 L8.0150755,8.53383433 L8.0150755,8.53383438 Z M14.4219304,9.32238205 L12.9745604,9.32238205 L12.9745604,10.7749449 C12.9745604,11.0602646 12.7411055,11.2937196 12.4557857,11.2937196 C12.1652731,11.2937196 11.937011,11.0602646 11.937011,10.7749449 L11.937011,9.32238205 L10.4844482,9.32238205 C10.1990968,9.32238205 9.96567347,9.09411993 9.96567347,8.80360734 C9.96567347,8.51828758 10.1990968,8.28483264 10.4844482,8.28483264 L11.937011,8.28483264 L11.937011,6.83743093 C11.937011,6.55211117 12.1652731,6.31865623 12.4557857,6.31865623 C12.7411055,6.31865623 12.9745604,6.55211117 12.9745604,6.83743093 L12.9745604,8.28483264 L14.4219304,8.28483264 C14.7072502,8.28483264 14.9407051,8.51828758 14.9407051,8.80360734 C14.9407051,9.09411993 14.7072502,9.32238205 14.4219304,9.32238205 Z M16.3621427,11.2677872 L16.3621427,6.83743093 C16.3621427,6.55211117 16.5955977,6.31865623 16.8809174,6.31865623 L18.7900046,6.31865623 C19.075356,6.31865623 19.3087793,6.55211117 19.3087793,6.83743093 C19.3087793,7.12794352 19.075356,7.35620563 18.7900046,7.35620563 L17.3996921,7.35620563 L17.3996921,8.53383433 L18.7900046,8.53383433 C19.075356,8.53383433 19.3087793,8.76728927 19.3087793,9.05260903 C19.3087793,9.33792879 19.075356,9.57138374 18.7900046,9.57138374 L17.3996921,9.57138374 L17.3996921,10.7490124 L18.7900046,10.7490124 C19.075356,10.7490124 19.3087793,10.9824674 19.3087793,11.2677871 C19.3087793,11.5531069 19.075356,11.7865618 18.7900046,11.7865618 L16.8809174,11.7865618 C16.5955977,11.7865618 16.3621427,11.5531069 16.3621427,11.2677872 Z M21.5498898,16.8549692 L17.3633741,16.8549692 L17.3633741,15.7136902 L21.5498898,15.7136902 L21.5498898,16.8549692 Z" id="Shape"></path>
        </g>
    </g>
</svg>