<?xml version="1.0" encoding="UTF-8"?>
<svg width="30px" height="30px" viewBox="0 0 30 30" version="1.1" xmlns="http://www.w3.org/2000/svg" xmlns:xlink="http://www.w3.org/1999/xlink">
    <!-- Generator: Sketch 57.1 (83088) - https://sketch.com -->
    <title>Filter</title>
    <desc>Created with Sketch.</desc>
    <g id="Filter" stroke="none" stroke-width="1" fill="none" fill-rule="evenodd">
        <path d="M26.9835114,5.23604357 C26.8461081,5.41039077 26.7112972,5.58473797 26.5738939,5.75908517 C26.2187192,6.21446964 25.8609519,6.66725192 25.5057772,7.12263639 C25.0054216,7.76277685 24.5024735,8.40291731 24.0021179,9.04305778 C23.4369493,9.76386634 22.8717808,10.4872771 22.3066123,11.2080857 C21.7492213,11.9184855 21.1918303,12.6314874 20.6344394,13.3418872 C20.1677865,13.9377903 19.698541,14.5362956 19.2318881,15.1321987 C18.9259712,15.5225283 18.6226468,15.9102556 18.3167299,16.3005852 C18.2493245,16.3864577 18.1845116,16.469728 18.1171062,16.5556005 C18.0393307,16.654484 17.9693328,16.7507653 17.9511851,16.8834773 C17.9434076,16.9381235 17.9408151,16.9823608 17.9408151,17.0370069 C17.9408151,17.6094903 17.9408151,18.1819736 17.9408151,18.7570592 C17.9408151,19.6652259 17.9408151,20.5759949 17.9408151,21.4841616 C17.9408151,22.189357 17.9408151,22.8945524 17.9408151,23.5997478 C17.9408151,23.7194488 17.9434076,23.8365477 17.9408151,23.9562488 C17.9408151,23.9640553 17.9330375,24.0082927 17.9382226,24.0134971 C17.9330375,24.0056905 17.9615552,23.9146136 17.9408151,23.9692597 C17.9330375,23.9926795 17.92526,24.0187015 17.9200749,24.0421213 C17.9097049,24.0967674 17.9278525,24.0082927 17.9382226,24.0056905 C17.9278525,24.0082927 17.8915573,24.091563 17.8837797,24.104574 C17.8422995,24.1748333 17.8837797,24.0811542 17.8967423,24.0889608 C17.8967423,24.0889608 17.850077,24.1384025 17.844892,24.1436069 C17.7826716,24.2112641 17.9097049,24.1097784 17.8293369,24.1566179 C17.8189668,24.1644245 17.8060042,24.1696289 17.7956342,24.1774355 C17.7930417,24.1800377 17.7878566,24.1826399 17.7852641,24.1826399 C17.7334138,24.2138663 17.6815635,24.2424904 17.6271206,24.2737168 C17.0126943,24.6250134 16.398268,24.97631 15.7838416,25.3302088 C15.0397895,25.7569691 14.2957374,26.1811272 13.5516852,26.6078875 C13.3520615,26.7223842 13.1524377,26.8368808 12.9554065,26.9487753 C12.9398514,26.9565819 12.9191113,26.9643885 12.9061487,26.9773995 C12.9035562,26.9773995 12.8983711,26.9800017 12.8983711,26.9826039 C12.9113337,26.9487753 12.9968868,26.9747973 12.9294813,26.9695929 C12.9191113,26.9695929 12.8465208,26.9878083 12.9346664,26.9721951 C13.0305895,26.9565819 12.882816,26.9539797 12.9787391,26.9721951 C13.0642922,26.9878083 12.9891092,26.9747973 12.9709616,26.9669907 C12.9217038,26.9409687 13.027997,26.9930126 13.0228119,26.9904104 C12.9450364,26.9487753 13.0928099,27.0606698 13.0305895,26.998217 C13.0046643,26.9747973 12.9839242,26.9279577 13.0539221,27.0320456 C13.043552,27.0164324 13.0254044,26.9695929 13.0513296,27.03725 C13.0798473,27.1101115 13.0591071,27.0528632 13.0565146,27.0398522 C13.0616997,27.0684764 13.0616997,27.1491445 13.0616997,27.0762829 C13.0616997,27.0710786 13.0616997,27.0658742 13.0616997,27.0606698 C13.0668847,26.6885556 13.0616997,26.3164414 13.0616997,25.9443273 C13.0616997,25.1714747 13.0616997,24.4012244 13.0616997,23.6283719 C13.0616997,22.704592 13.0616997,21.7808121 13.0616997,20.8570321 C13.0616997,20.0399423 13.0616997,19.2228524 13.0616997,18.4057626 C13.0616997,17.9529803 13.0616997,17.4975958 13.0616997,17.0448135 C13.0616997,17.0161894 13.0642922,16.9901674 13.0616997,16.9615432 C13.0539221,16.8054114 12.9865167,16.6909147 12.8957786,16.5738159 C12.8361508,16.49575 12.7739304,16.4202863 12.7143025,16.3422203 C12.4213482,15.967504 12.1258013,15.5927876 11.832847,15.2180712 C11.3687866,14.6273725 10.9047262,14.0340716 10.4406658,13.4433729 C9.88845988,12.7381775 9.33625394,12.0329821 8.784048,11.3277867 C8.21369445,10.6017738 7.64593341,9.87576081 7.07557985,9.14974785 C6.57263172,8.50700519 6.06709107,7.86426254 5.56414293,7.21891768 C5.19859815,6.75052222 4.83046086,6.28472896 4.46491608,5.8163335 C4.31714266,5.62637312 4.16677672,5.43641274 4.0190033,5.24905456 C4.02678085,5.25686115 4.0993713,5.37396001 4.06048356,5.2984963 C4.06307608,5.30370069 4.02937337,5.24124797 4.02937337,5.24124797 C4.0345584,5.24124797 4.06307608,5.34533585 4.0501135,5.29329191 C4.04492846,5.26987213 4.0345584,5.20741941 4.02159582,5.18920403 C4.06048356,5.23864577 4.02678085,5.30370069 4.02937337,5.23864577 C4.02937337,5.22303259 4.02937337,5.2100216 4.02937337,5.19440842 C4.02937337,5.18399963 4.0345584,5.16057986 4.03196588,5.15017107 C4.0345584,5.15277327 4.00604072,5.26206554 4.02418833,5.215226 C4.0345584,5.18399963 4.04233595,5.14756887 4.0501135,5.11634251 C4.07085362,5.04348099 3.99307814,5.2126238 4.05270601,5.1215469 C4.06307608,5.10593372 4.07603866,5.09032054 4.08381621,5.07210516 C4.10714885,5.02786781 4.0501135,5.11894471 4.04752098,5.11894471 C4.06307608,5.11374031 4.09677879,5.06950296 4.10974137,5.05649198 C4.15640666,5.00965243 4.12011143,5.08511615 4.07344614,5.08251395 C4.08381621,5.08251395 4.10196382,5.06169637 4.11233388,5.05909418 C4.21862705,5.01745902 4.02678085,5.07730956 4.11233388,5.05388978 C4.13825905,5.04608319 4.25232976,5.02526562 4.16677672,5.0356744 C4.08122369,5.04608319 4.17714679,5.0382766 4.1952944,5.0382766 C4.1952944,5.0382766 4.19788692,5.0382766 4.19788692,5.0382766 C4.24455221,5.0382766 4.29381001,5.0382766 4.34047531,5.0382766 C4.63861466,5.0382766 4.93675402,5.0382766 5.23489338,5.0382766 C5.75858164,5.0382766 6.28226991,5.0382766 6.80595817,5.0382766 C7.50853005,5.0382766 8.21110193,5.0382766 8.91367381,5.0382766 C9.73809395,5.0382766 10.5651066,5.0382766 11.3895267,5.0382766 C12.2943149,5.0382766 13.199103,5.0382766 14.1064837,5.0382766 C15.0320119,5.0382766 15.9601327,5.0382766 16.885661,5.0382766 C17.7904491,5.0382766 18.6978298,5.0382766 19.6026179,5.0382766 C20.4296306,5.0382766 21.2540507,5.0382766 22.0810634,5.0382766 C22.7836353,5.0382766 23.4887997,5.0382766 24.1913715,5.0382766 C24.7150598,5.0382766 25.2387481,5.0382766 25.7650288,5.0382766 C26.0631682,5.0382766 26.3639001,5.0382766 26.6620394,5.0382766 C26.7087047,5.0382766 26.7579625,5.0382766 26.8046278,5.0382766 C26.830553,5.0382766 26.921291,5.04608319 26.8383305,5.0356744 C26.7475925,5.02526562 26.8694407,5.04868539 26.8927734,5.05388978 C26.9757339,5.07470736 26.8098129,5.00184584 26.8798108,5.05128759 C26.8875883,5.05649198 26.9264761,5.08251395 26.9290686,5.08251395 C26.9238836,5.08251395 26.8487006,5.00965243 26.8824033,5.04608319 C26.9005509,5.06690077 26.9238836,5.09032054 26.9446237,5.10853592 C26.9809189,5.13716009 26.910921,5.06429857 26.9083285,5.05909418 C26.910921,5.06950296 26.9342536,5.09552493 26.9394387,5.10853592 C26.9472162,5.11894471 26.9524012,5.13716009 26.9601788,5.14756887 C26.9886965,5.18399963 26.9394387,5.09552493 26.9368461,5.09032054 C26.9394387,5.11894471 26.9601788,5.16057986 26.9679563,5.18660183 C26.9705489,5.19961281 26.9705489,5.21782819 26.9757339,5.23083918 C26.9731414,5.22563478 26.9731414,5.11894471 26.9653638,5.16578425 C26.9627713,5.18660183 26.9575863,5.25165675 26.9627713,5.26987213 C26.9601788,5.26206554 26.9886965,5.16318206 26.9705489,5.20481721 C26.9653638,5.21782819 26.9627713,5.23604357 26.9601788,5.24905456 C26.9549938,5.26466774 26.9498087,5.27767872 26.9446237,5.29329191 C26.9316611,5.34533585 26.9601788,5.24124797 26.9653638,5.24124797 C26.9627713,5.24124797 26.9005509,5.34533585 26.8953659,5.35314244 C26.7346299,5.57432918 26.8512931,5.94384115 27.082027,6.06614441 C27.3516487,6.20926525 27.6212704,6.11558616 27.7923765,5.87878623 C28.036073,5.54570501 28.0568131,5.10072933 27.8986696,4.72601296 C27.7249711,4.30966144 27.3438712,4.05724833 26.9031434,4.00780659 C26.835738,4 26.7683326,4 26.6983347,4 C26.4131579,4 26.1305736,4 25.8453968,4 C25.3191161,4 24.7902428,4 24.263962,4 C23.5536126,4 22.8406706,4 22.1303212,4 C21.2825684,4 20.4348156,4 19.5870628,4 C18.6641271,4 17.7411913,4 16.8182556,4 C15.8668021,4 14.9127562,4 13.9613028,4 C13.043552,4 12.1232088,4 11.2054581,4 C10.3654829,4 9.52550762,4 8.68553239,4 C7.98296051,4 7.28298115,4 6.58040927,4 C6.0722761,4 5.56414293,4 5.05860228,4 C4.79416563,4 4.52972899,4 4.26529234,4 C4.04752098,4 3.83752717,4.03903295 3.64049594,4.13531424 C3.2645811,4.30966144 3.04680974,4.70259319 3.00532948,5.11113812 C2.97162677,5.43381054 3.10125258,5.7278588 3.29569129,5.97506752 C3.4564273,6.18064108 3.6171633,6.38621464 3.7778993,6.59178821 C4.16159169,7.08100124 4.54269157,7.57021428 4.92638396,8.05682511 C5.45266474,8.72819194 5.97894552,9.39955876 6.50263378,10.0709256 C7.08594992,10.8177561 7.67185857,11.5619845 8.2551747,12.308815 C8.81256568,13.0192148 9.36995665,13.7322168 9.92734763,14.4426165 C10.381038,15.0203043 10.8347283,15.6005942 11.2884186,16.1782819 C11.5502627,16.5139653 11.8146994,16.8496488 12.0765435,17.18273 C12.1128387,17.2269673 12.1465415,17.2712047 12.1828367,17.3180442 C12.1309864,17.195741 12.0817286,17.0734377 12.0298782,16.9511344 C12.0298782,17.4065189 12.0298782,17.8593012 12.0298782,18.3146857 C12.0298782,19.3425535 12.0298782,20.3730235 12.0298782,21.4008913 C12.0298782,22.519836 12.0298782,23.6361785 12.0298782,24.7551232 C12.0298782,25.4629208 12.0298782,26.1733206 12.0298782,26.8811182 C12.0298782,26.9383665 12.0272857,26.9956148 12.0298782,27.050261 C12.0402483,27.4640103 12.2709822,27.7970915 12.6546746,27.9454167 C13.0694772,28.106753 13.4142819,27.8777596 13.756494,27.6825948 C14.6327645,27.1803708 15.5116274,26.6781468 16.3878979,26.1759228 C17.0308419,25.809013 17.6815635,25.4499098 18.3193224,25.0699891 C18.7263475,24.8279847 18.970044,24.4038266 18.9804141,23.9302268 C18.9804141,23.880785 18.9804141,23.8313433 18.9804141,23.7819016 C18.9804141,23.4592291 18.9804141,23.1365567 18.9804141,22.8138843 C18.9804141,21.7261659 18.9804141,20.6384476 18.9804141,19.5507292 C18.9804141,18.7258328 18.9804141,17.9035385 18.9804141,17.0786421 C18.9804141,17.0344047 18.9804141,16.9901674 18.9804141,16.94593 C18.9285637,17.0682333 18.8793059,17.1905366 18.8274556,17.3128398 C19.1230024,16.9355213 19.4185493,16.5582027 19.7166886,16.1808841 C20.421853,15.280524 21.1270174,14.3801638 21.8321818,13.4798037 C22.6903047,12.3842787 23.5484275,11.2887538 24.4065504,10.1932288 C25.1454175,9.24863134 25.8842846,8.30663603 26.6257442,7.36203852 C26.9861039,6.90405185 27.3438712,6.44606517 27.7042309,5.98547631 C27.709416,5.98027191 27.714601,5.97246532 27.719786,5.96726093 C27.8079316,5.85536646 27.8727445,5.74867638 27.8727445,5.60035115 C27.8727445,5.4728435 27.8157091,5.31931388 27.719786,5.23344138 C27.5305323,5.06429857 27.162395,5.00705024 26.9835114,5.23604357 Z" id="XMLID_16_" fill="#909090" fill-rule="nonzero"></path>
    </g>
</svg>