<?xml version="1.0" encoding="UTF-8"?>
<svg width="158px" height="37px" viewBox="0 0 158 37" version="1.1" xmlns="http://www.w3.org/2000/svg" xmlns:xlink="http://www.w3.org/1999/xlink">
    <!-- Generator: Sketch 57.1 (83088) - https://sketch.com -->
    <title>Logo</title>
    <desc>Created with Sketch.</desc>
    <g id="Logo" stroke="none" stroke-width="1" fill="none" fill-rule="evenodd">
        <g id="Group" transform="translate(2.000000, 6.000000)" fill-rule="nonzero">
            <g id="4107752_algorithm_gym_learning_openai_reinforcement_icon">
                <path d="M22.2606604,4.716133 C22.7262931,5.52351447 22.9484298,6.40351755 22.9484298,7.27497691 C22.9484298,8.27459206 22.6536715,9.26139163 22.0983297,10.102948 C22.0983297,10.0986761 22.0940579,10.0986761 22.0940579,10.0986761 L15.8058805,6.46759544 L12.3926647,8.43265086 L8.96663331,10.40625 L8.97090517,6.46759544 L15.2590825,2.83651478 C15.2633544,2.83651478 15.2633544,2.83224292 15.2676262,2.83224292 C17.7196736,1.42252925 20.8466749,2.26835745 22.2606604,4.716133 Z" id="Path" fill="#51DD90"></path>
                <path d="M12.384121,16.3441349 L8.97090517,18.3091903 L2.68272783,14.6781096 C2.68272783,14.6781096 2.67845597,14.6781096 2.67845597,14.6738377 C0.230680419,13.2555804 -0.610875924,10.1243073 0.807381466,7.67225985 C1.7557343,6.0275939 3.47729372,5.10914409 5.25011546,5.10914409 C5.35264009,5.10914409 5.45089286,5.11341595 5.55341749,5.11768781 C5.55341749,5.12195967 5.55341749,5.12195967 5.55341749,5.12623153 L5.55341749,12.3883929 L8.95808959,14.361992 L12.384121,16.3441349 Z" id="Path" fill="#51DD90"></path>
                <path d="M15.2676262,2.83224292 C15.2633544,2.83224292 15.2633544,2.83651478 15.2590825,2.83651478 L8.97090517,6.46759544 L8.96663331,10.40625 L8.95808959,14.361992 L5.55341749,12.3883929 L5.55341749,5.12623153 C5.55341749,5.12195967 5.55341749,5.12195967 5.55341749,5.11768781 C5.55768935,2.28971675 7.85167796,0 10.679649,0 C12.0979064,0 13.3794643,0.572429187 14.3064578,1.49942272 C14.695197,1.88816195 15.0198584,2.3367072 15.2676262,2.83224292 Z" id="Path" fill="#0297F8"></path>
                <path d="M19.2233682,19.6505542 C19.2233682,19.654826 19.2233682,19.654826 19.2233682,19.6590979 C19.2190964,22.487069 16.9251078,24.7767857 14.0971367,24.7767857 C12.6788793,24.7767857 11.3973214,24.2043565 10.4703279,23.277363 C10.0815887,22.8886238 9.75692734,22.4400785 9.50915948,21.9445428 C9.51343134,21.9445428 9.51343134,21.9402709 9.5177032,21.9402709 L15.8058805,18.3091903 L15.8101524,14.3705357 L15.8186961,10.4147937 L19.2233682,12.3883929 L19.2233682,19.6505542 Z" id="Path" fill="#51DD90"></path>
                <path d="M2.68272783,14.6781096 L8.97090517,18.3091903 L12.384121,16.3441349 L15.8101524,14.3705357 L15.8058805,18.3091903 L9.5177032,21.9402709 C9.51343134,21.9402709 9.51343134,21.9445428 9.50915948,21.9445428 C7.05711207,23.3542565 3.93011084,22.5084283 2.51612531,20.0606527 C2.05049261,19.2532712 1.82835591,18.3732682 1.82835591,17.5018088 C1.82835591,16.5021937 2.12311422,15.5153941 2.67845597,14.6738377 C2.67845597,14.6781096 2.68272783,14.6781096 2.68272783,14.6781096 Z" id="Path" fill="#0297F8"></path>
                <path d="M22.0983297,10.102948 C24.5461053,11.5212054 25.3876616,14.6524784 23.9694042,17.1045259 C23.0210514,18.7491918 21.299492,19.6676416 19.5266703,19.6676416 C19.4241456,19.6676416 19.3258929,19.6633698 19.2233682,19.6590979 C19.2233682,19.654826 19.2233682,19.654826 19.2233682,19.6505542 L19.2233682,12.3883929 L15.8186961,10.4147937 L12.3926647,8.43265086 L15.8058805,6.46759544 L22.0940579,10.0986761 C22.0940579,10.0986761 22.0983297,10.0986761 22.0983297,10.102948 Z" id="Path" fill="#0297F8"></path>
            </g>
            <g id="Group-16" transform="translate(35.000000, 6.000000)">
                <polygon id="Path" fill="#51DD90" points="2.03764032 11.5861176 0 11.5861176 0 0.189547937 7.26600425 0.189547937 7.26600425 1.91127503 2.03764032 1.91127503 2.03764032 5.27575091 6.8158279 5.27575091 6.8158279 6.93429536 2.03764032 6.93429536"></polygon>
                <path d="M12.7628944,0.189547937 C13.9896969,0.189547937 14.9532226,0.506774298 15.6535005,1.14123654 C16.3537783,1.77569878 16.7039119,2.64050259 16.7039119,3.73567392 C16.7039119,4.49913471 16.5143659,5.1717599 16.1352681,5.75356967 C15.7561704,6.33537944 15.2296536,6.74737882 14.555702,6.98958017 L17.0435187,11.5861176 L14.7215564,11.5861176 L12.4785725,7.29759557 L10.2750777,7.29759557 L10.2750777,11.5861176 L8.23743742,11.5861176 L8.23743742,0.189547937 L12.7628944,0.189547937 Z M12.5338573,1.84019455 L10.2750777,1.84019455 L10.2750777,5.73382509 L12.5733465,5.73382509 C13.2209718,5.73382509 13.7237954,5.56270714 14.0818321,5.2204661 C14.4398689,4.87822505 14.6188846,4.39909478 14.6188846,3.78306091 C14.6188846,3.18282277 14.4319712,2.70895767 14.0581387,2.36145138 C13.6843061,2.01394509 13.1762174,1.84019455 12.5338573,1.84019455 Z" id="Combined-Shape" fill="#51DD90"></path>
                <polygon id="Path" fill="#51DD90" points="25.2177734 9.86439055 25.2177734 11.5861176 17.8411996 11.5861176 17.8411996 0.189547937 25.2177734 0.189547937 25.2177734 1.91127503 19.8788399 1.91127503 19.8788399 4.991429 24.9255537 4.991429 24.9255537 6.6104843 19.8788399 6.6104843 19.8788399 9.86439055"></polygon>
                <path d="M26.0154543,8.37959838 L27.989912,8.37959838 C28.053095,8.90085781 28.3216185,9.32075494 28.7954907,9.63930237 C29.269363,9.95784981 29.8564292,10.1171211 30.556707,10.1171211 C31.2411891,10.1171211 31.8006132,9.96443126 32.234996,9.65904695 C32.6693789,9.35366264 32.8865671,8.96404022 32.8865671,8.49016801 C32.8865671,8.07947876 32.728612,7.74645689 32.4126972,7.49109242 C32.0967824,7.23572795 31.580796,7.02380495 30.8647224,6.85531705 L29.387828,6.5078125 C28.3400439,6.26561115 27.5621154,5.88915165 27.0540191,5.37842271 C26.5459228,4.86769377 26.2918784,4.20428263 26.2918784,3.38816937 C26.2918784,2.38250723 26.686766,1.56640622 27.476553,0.939841854 C28.26634,0.313277485 29.28515,0 30.5330135,0 C31.7861422,0 32.7957382,0.309328609 33.5618316,0.927995108 C34.327925,1.54666161 34.7241289,2.35881374 34.7504551,3.36447588 L32.8075887,3.36447588 C32.7602015,2.83268595 32.5311667,2.4154214 32.1204775,2.11266971 C31.7097882,1.80991802 31.1753737,1.65854445 30.5172178,1.65854445 C29.8748577,1.65854445 29.3549224,1.80333656 28.9573963,2.09292514 C28.5598701,2.38251371 28.3611101,2.76423838 28.3611101,3.23811059 C28.3611101,3.61720836 28.5151162,3.92522068 28.8231332,4.16215678 C29.1311501,4.39909289 29.6352899,4.60180185 30.3355677,4.77028975 L31.6466076,5.07040731 C32.7996967,5.33366965 33.6368584,5.7180269 34.1581178,6.22349059 C34.6793772,6.72895429 34.940003,7.40552835 34.940003,8.25323309 C34.940003,9.33260868 34.5359014,10.1895147 33.727686,10.823977 C32.9194706,11.4584392 31.825632,11.7756656 30.4461374,11.7756656 C29.1298257,11.7756656 28.0728432,11.4716021 27.2751583,10.8634661 C26.4774734,10.2553301 26.0575763,9.42738249 26.0154543,8.37959838 Z" id="Path" fill="#51DD90"></path>
                <polygon id="Path" fill="#51DD90" points="45.578381 11.5861176 43.5486385 11.5861176 43.5486385 6.64207562 38.0043613 6.64207562 38.0043613 11.5861176 35.966721 11.5861176 35.966721 0.189547937 38.0043613 0.189547937 38.0043613 4.92824636 43.5486385 4.92824636 43.5486385 0.189547937 45.578381 0.189547937"></polygon>
                <path d="M46.6129968,8.37959838 L48.5874545,8.37959838 C48.6506375,8.90085781 48.919161,9.32075494 49.3930332,9.63930237 C49.8669054,9.95784981 50.4539716,10.1171211 51.1542495,10.1171211 C51.8387316,10.1171211 52.3981556,9.96443126 52.8325385,9.65904695 C53.2669214,9.35366264 53.4841095,8.96404022 53.4841095,8.49016801 C53.4841095,8.07947876 53.3261545,7.74645689 53.0102397,7.49109242 C52.6943249,7.23572795 52.1783384,7.02380495 51.4622649,6.85531705 L49.9853705,6.5078125 C48.9375864,6.26561115 48.1596579,5.88915165 47.6515616,5.37842271 C47.1434652,4.86769377 46.8894209,4.20428263 46.8894209,3.38816937 C46.8894209,2.38250723 47.2843085,1.56640622 48.0740955,0.939841854 C48.8638825,0.313277485 49.8826925,0 51.130556,0 C52.3836847,0 53.3932806,0.309328609 54.1593741,0.927995108 C54.9254675,1.54666161 55.3216713,2.35881374 55.3479976,3.36447588 L53.4051312,3.36447588 C53.357744,2.83268595 53.1287092,2.4154214 52.7180199,2.11266971 C52.3073307,1.80991802 51.7729162,1.65854445 51.1147603,1.65854445 C50.4724002,1.65854445 49.9524649,1.80333656 49.5549388,2.09292514 C49.1574126,2.38251371 48.9586525,2.76423838 48.9586525,3.23811059 C48.9586525,3.61720836 49.1126587,3.92522068 49.4206756,4.16215678 C49.7286926,4.39909289 50.2328324,4.60180185 50.9331102,4.77028975 L52.2441501,5.07040731 C53.3972392,5.33366965 54.2344008,5.7180269 54.7556603,6.22349059 C55.2769197,6.72895429 55.5375455,7.40552835 55.5375455,8.25323309 C55.5375455,9.33260868 55.1334439,10.1895147 54.3252285,10.823977 C53.5170131,11.4584392 52.4231745,11.7756656 51.0436798,11.7756656 C49.7273681,11.7756656 48.6703857,11.4716021 47.8727008,10.8634661 C47.0750159,10.2553301 46.6551188,9.42738249 46.6129968,8.37959838 Z" id="Path" fill="#225FAD"></path>
                <path d="M61.4767142,11.7756656 C59.8444877,11.7756656 58.5532053,11.2491488 57.6028282,10.1960994 C56.6524512,9.14305008 56.1772698,7.70565927 56.1772698,5.88388387 C56.1772698,4.07263898 56.6550838,2.63919704 57.6107261,1.58351506 C58.5663684,0.527833074 59.8550182,0 61.4767142,0 C62.8035564,0 63.9224046,0.377775791 64.8332922,1.13333871 C65.7441799,1.88890162 66.262799,2.87743688 66.3891649,4.09897414 L64.3831159,4.09897414 C64.2514847,3.38290057 63.9184629,2.80899728 63.3840403,2.37724704 C62.8496178,1.9454968 62.2138488,1.72962492 61.4767142,1.72962492 C60.4973783,1.72962492 59.7168172,2.10476813 59.1350074,2.8550658 C58.5531976,3.60536347 58.2622971,4.6149594 58.2622971,5.88388387 C58.2622971,7.16333885 58.5518813,8.17688365 59.1310585,8.9245487 C59.7102356,9.67221374 60.4947456,10.0460407 61.484612,10.0460407 C62.2375423,10.0460407 62.8706788,9.85254574 63.3840403,9.4655501 C63.8974019,9.07855446 64.2330563,8.54282363 64.3910137,7.85834155 L66.3891649,7.85834155 C66.2101465,9.07987881 65.6836297,10.0381393 64.8095988,10.7331519 C63.9355678,11.4281645 62.8246174,11.7756656 61.4767142,11.7756656 Z" id="Path" fill="#225FAD"></path>
                <polygon id="Path" fill="#225FAD" points="77.0354407 11.5861176 75.0056982 11.5861176 75.0056982 6.64207562 69.461421 6.64207562 69.461421 11.5861176 67.4237807 11.5861176 67.4237807 0.189547937 69.461421 0.189547937 69.461421 4.92824636 75.0056982 4.92824636 75.0056982 0.189547937 77.0354407 0.189547937"></polygon>
                <path d="M83.5590488,0 C85.2176016,0 86.5325772,0.529149366 87.5040153,1.58746397 C88.4754533,2.64577858 88.961165,4.08053681 88.961165,5.89178171 C88.961165,7.7030266 88.4754533,9.13646854 87.5040153,10.1921505 C86.5325772,11.2478325 85.2176016,11.7756656 83.5590488,11.7756656 C81.8952309,11.7756656 80.5776226,11.2478325 79.6061846,10.1921505 C78.6347465,9.13646854 78.1490348,7.7030266 78.1490348,5.89178171 C78.1490348,4.08053681 78.6347465,2.64577858 79.6061846,1.58746397 C80.5776226,0.529149366 81.8952309,0 83.5590488,0 Z M83.5590488,1.73752275 C82.5428562,1.73752275 81.734653,2.11134967 81.1344148,2.85901471 C80.5341767,3.60667976 80.2340621,4.61759198 80.2340621,5.89178171 C80.2340621,7.16070618 80.5341767,8.16898582 81.1344148,8.91665086 C81.734653,9.66431591 82.5428562,10.0381428 83.5590488,10.0381428 C84.5752415,10.0381428 85.3834447,9.66431591 85.9836829,8.91665086 C86.583921,8.16898582 86.8840356,7.16070618 86.8840356,5.89178171 C86.8840356,4.62285723 86.583921,3.61457759 85.9836829,2.86691255 C85.3834447,2.11398225 84.5752415,1.73752275 83.5590488,1.73752275 Z" id="Combined-Shape" fill="#225FAD"></path>
                <path d="M95.0977795,0 C96.7563322,0 98.0713079,0.529149366 99.0427459,1.58746397 C100.014184,2.64577858 100.499896,4.08053681 100.499896,5.89178171 C100.499896,7.7030266 100.014184,9.13646854 99.0427459,10.1921505 C98.0713079,11.2478325 96.7563322,11.7756656 95.0977795,11.7756656 C93.4339615,11.7756656 92.1163533,11.2478325 91.1449152,10.1921505 C90.1734772,9.13646854 89.6877655,7.7030266 89.6877655,5.89178171 C89.6877655,4.08053681 90.1734772,2.64577858 91.1449152,1.58746397 C92.1163533,0.529149366 93.4339615,0 95.0977795,0 Z M95.0977795,1.73752275 C94.0815869,1.73752275 93.2733836,2.11134967 92.6731455,2.85901471 C92.0729073,3.60667976 91.7727928,4.61759198 91.7727928,5.89178171 C91.7727928,7.16070618 92.0729073,8.16898582 92.6731455,8.91665086 C93.2733836,9.66431591 94.0815869,10.0381428 95.0977795,10.0381428 C96.1139721,10.0381428 96.9221754,9.66431591 97.5224135,8.91665086 C98.1226517,8.16898582 98.4227662,7.16070618 98.4227662,5.89178171 C98.4227662,4.62285723 98.1226517,3.61457759 97.5224135,2.86691255 C96.9221754,2.11398225 96.1139721,1.73752275 95.0977795,1.73752275 Z" id="Combined-Shape" fill="#225FAD"></path>
                <polygon id="Path" fill="#225FAD" points="108.824209 9.86439055 108.824209 11.5861176 101.61349 11.5861176 101.61349 0.189547937 103.65113 0.189547937 103.65113 9.86439055"></polygon>
                <path d="M109.313875,8.37959838 L111.288332,8.37959838 C111.351515,8.90085781 111.620039,9.32075494 112.093911,9.63930237 C112.567783,9.95784981 113.15485,10.1171211 113.855127,10.1171211 C114.53961,10.1171211 115.099034,9.96443126 115.533416,9.65904695 C115.967799,9.35366264 116.184987,8.96404022 116.184987,8.49016801 C116.184987,8.07947876 116.027032,7.74645689 115.711118,7.49109242 C115.395203,7.23572795 114.879216,7.02380495 114.163143,6.85531705 L112.686248,6.5078125 C111.638464,6.26561115 110.860536,5.88915165 110.35244,5.37842271 C109.844343,4.86769377 109.590299,4.20428263 109.590299,3.38816937 C109.590299,2.38250723 109.985186,1.56640622 110.774973,0.939841854 C111.56476,0.313277485 112.58357,0 113.831434,0 C115.084563,0 116.094159,0.309328609 116.860252,0.927995108 C117.626345,1.54666161 118.022549,2.35881374 118.048876,3.36447588 L116.106009,3.36447588 C116.058622,2.83268595 115.829587,2.4154214 115.418898,2.11266971 C115.008209,1.80991802 114.473794,1.65854445 113.815638,1.65854445 C113.173278,1.65854445 112.653343,1.80333656 112.255817,2.09292514 C111.858291,2.38251371 111.65953,2.76423838 111.65953,3.23811059 C111.65953,3.61720836 111.813537,3.92522068 112.121554,4.16215678 C112.429571,4.39909289 112.93371,4.60180185 113.633988,4.77028975 L114.945028,5.07040731 C116.098117,5.33366965 116.935279,5.7180269 117.456538,6.22349059 C117.977798,6.72895429 118.238423,7.40552835 118.238423,8.25323309 C118.238423,9.33260868 117.834322,10.1895147 117.026106,10.823977 C116.217891,11.4584392 115.124052,11.7756656 113.744558,11.7756656 C112.428246,11.7756656 111.371264,11.4716021 110.573579,10.8634661 C109.775894,10.2553301 109.355997,9.42738249 109.313875,8.37959838 Z" id="Path" fill="#225FAD"></path>
            </g>
        </g>
    </g>
</svg>