<?xml version="1.0" encoding="UTF-8"?>
<svg width="30px" height="30px" viewBox="0 0 30 30" version="1.1" xmlns="http://www.w3.org/2000/svg" xmlns:xlink="http://www.w3.org/1999/xlink">
    <!-- Generator: Sketch 57.1 (83088) - https://sketch.com -->
    <title>School Listt</title>
    <desc>Created with Sketch.</desc>
    <g id="School-Listt" stroke="none" stroke-width="1" fill="none" fill-rule="evenodd">
        <g id="112332_education_graduation-hat_learning_mortar_raw_icon" transform="translate(1.000000, 5.000000)" fill="#3DBCE8" fill-rule="nonzero">
            <g id="Group" transform="translate(0.633224, 0.104874)">
                <path d="M14.9236993,9.94627872 C14.7547903,9.99793895 14.5802301,10.0238547 14.4055557,10.0238547 C14.2308814,10.0238547 14.0563212,9.99793895 13.8874122,9.94627872 L8.06236418,8.16243091 C7.75988068,8.98499881 7.12694293,10.8473359 7.30156023,11.5896449 C7.73259494,13.4217851 10.861835,15.4709553 14.4045282,15.4709553 C16.0353933,15.4709553 17.7143794,15.0009899 19.1322672,14.1477112 C20.3737111,13.4005502 21.2820179,12.427454 21.5027584,11.6083111 C21.6980968,10.8834695 21.0512879,8.99533086 20.7428677,8.16431465 L14.9236993,9.94627872 Z" id="Path"></path>
                <path d="M27.1355504,3.90539941 L14.5577394,0.0534868927 C14.4585289,0.0230615845 14.3523543,0.0230615845 14.2532579,0.0534868927 L1.67550403,3.90539941 C1.1866441,4.05507138 1.18510286,4.74954474 1.67550403,4.89967337 L5.61572415,6.10635365 C5.30970149,6.45313367 4.77523215,7.49193246 4.72928023,7.6444015 C4.21473289,7.78579642 3.83621466,8.25564766 3.83621466,8.81506233 C3.83621466,9.17320189 3.99205161,9.49412325 4.23865073,9.71651912 C4.01614069,11.9114225 2.6000224,14.6313766 0.0246599121,16.5959496 C0.0246599121,16.5959496 1.75610541,18.5763346 3.41111659,18.0670389 C4.99842719,17.5786928 6.06314172,14.7275046 5.68879056,9.84826698 C6.102472,9.59259164 6.26664308,9.16595233 6.26664308,8.81511942 C6.26664308,8.49847929 6.14454227,8.21100865 5.94606422,7.99466359 C6.77588168,5.35799382 12.0857544,4.11615033 14.4666918,3.77970236 C14.8113597,3.73141003 15.1302261,3.97121626 15.1788609,4.31605545 C15.2274957,4.66078047 14.9874041,4.97958975 14.6426791,5.02822458 C12.6157142,5.32088979 9.98600858,6.05149677 8.45749361,6.97658597 L14.253315,8.75141464 C14.3028632,8.76665584 14.5081912,8.76665584 14.5577964,8.75141464 L27.1356075,4.89967337 C27.6709901,4.73567354 27.5794288,4.04120018 27.1355504,3.90539941 Z" id="Path"></path>
            </g>
        </g>
    </g>
</svg>