<?xml version="1.0" encoding="UTF-8"?>
<svg width="30px" height="30px" viewBox="0 0 30 30" version="1.1" xmlns="http://www.w3.org/2000/svg" xmlns:xlink="http://www.w3.org/1999/xlink">
    <!-- Generator: Sketch 57.1 (83088) - https://sketch.com -->
    <title>Search Icon</title>
    <desc>Created with Sketch.</desc>
    <g id="Search-Icon" stroke="none" stroke-width="1" fill="none" fill-rule="evenodd">
        <path d="M28,26.8318614 L26.8326556,28 L19.4569724,20.6237294 C17.7138715,22.1009832 15.462505,22.995834 12.9986668,22.995834 C7.47606986,22.995834 3,18.5199133 3,12.9983336 C3,7.47675387 7.47606986,3 12.9986668,3 C18.5204306,3 22.9973337,7.47675387 22.9973337,12.9983336 C22.9973337,15.4620897 22.102453,17.7133811 20.6243168,19.4564239 L28,26.8318614 Z M12.9986668,4.66638894 C8.39761365,4.66638894 4.66644447,8.39743376 4.66644447,12.9983336 C4.66644447,17.5992335 8.39761365,21.3302783 12.9986668,21.3302783 C17.59972,21.3302783 21.3308892,17.5992335 21.3308892,12.9983336 C21.3308892,8.39743376 17.6005533,4.66638894 12.9986668,4.66638894 Z" id="Shape" fill="#909090" fill-rule="nonzero"></path>
    </g>
</svg>