<?xml version="1.0" encoding="UTF-8"?>
<svg width="30px" height="30px" viewBox="0 0 30 30" version="1.1" xmlns="http://www.w3.org/2000/svg" xmlns:xlink="http://www.w3.org/1999/xlink">
    <!-- Generator: Sketch 57.1 (83088) - https://sketch.com -->
    <title>Student List</title>
    <desc>Created with Sketch.</desc>
    <g id="Student-List" stroke="none" stroke-width="1" fill="none" fill-rule="evenodd">
        <g id="105080_students_school_university_icon" transform="translate(2.000000, 6.000000)" fill="#D642C8" fill-rule="nonzero">
            <path d="M18.2275303,12.1396848 C17.6073228,11.5911984 14.7341621,10.8971347 14.0567913,10.617869 C13.5111193,10.3929522 13.5495517,10.110678 13.5495517,10.110678 L13.5523662,9.74222202 C14.0766383,9.36711803 14.501093,8.78306221 14.7599293,8.07565394 C14.7672567,8.0759451 14.7746326,8.07652741 14.7820085,8.07652741 C15.206172,8.07652741 15.5500254,7.53619327 15.5500254,6.86964368 C15.5500254,6.75910204 15.5404173,6.65219983 15.5227054,6.5505384 C15.6820154,6.14491173 15.7695073,5.70327895 15.7695073,5.24116832 C15.7695073,5.11228394 15.7625196,4.98500092 15.7492236,4.85961041 L16.6607311,3.31401701 L14.9633492,2.06006331 L14.9633492,4.69433173 C15.0330807,4.71315972 15.0845665,4.77614613 15.0845665,4.85179776 L15.0845665,5.93891996 C15.0845665,6.02937194 15.0113412,6.10264581 14.9209862,6.10264581 L14.6420117,6.10264581 C14.5516568,6.10264581 14.4783344,6.02937194 14.4783344,5.93891996 L14.4783344,4.85179776 C14.4783344,4.77614613 14.5299173,4.71315972 14.5996488,4.69433173 L14.5996488,1.79137628 L12.1746233,0 L7.64823921,3.31396848 L8.61783205,4.88959932 C8.60705934,5.00504206 8.60118773,5.12228025 8.60118773,5.24111979 C8.60118773,5.70327895 8.68867964,6.14491173 8.84794112,6.5505384 C8.83022923,6.65219983 8.82062113,6.75910204 8.82062113,6.86959516 C8.82062113,7.53614475 9.16447454,8.07647888 9.58863804,8.07647888 C9.59601396,8.07647888 9.60334134,8.07589657 9.61071726,8.07560542 C9.85722802,8.74919124 10.2538774,9.31073112 10.7439389,9.68675709 L10.7471416,10.1106294 C10.7471416,10.1106294 10.7855255,10.3929037 10.2398535,10.6178205 C9.56248267,10.8970861 6.6892735,11.5911984 6.069066,12.1396363 C5.55265505,12.5961665 5.34069461,12.9846636 5.39266568,13.8868541 C5.44138553,14.7327063 5.56182642,15.2395092 5.56182642,15.2395092 C5.56182642,15.2395092 8.42377761,16.9563985 11.6025534,16.9241288 C11.7836029,16.9222849 12.4672821,16.9202953 12.6258157,16.9231583 C15.8317659,16.981001 18.7348669,15.2395092 18.7348669,15.2395092 C18.7348669,15.2395092 18.8551622,14.7327063 18.9039306,13.8868541 C18.9558046,12.9847121 18.7439412,12.596215 18.2275303,12.1396848" id="Path"></path>
            <path d="M23.8029439,10.8011993 C23.3614082,10.4108097 21.3162908,9.91667206 20.8340905,9.71791062 C20.4456905,9.55787272 20.473059,9.35692763 20.473059,9.35692763 L20.4750485,9.09469452 C20.8482115,8.82760884 21.1503813,8.41193733 21.3346335,7.90838571 C21.3398258,7.90862834 21.3451151,7.90901654 21.3503559,7.90901654 C21.652283,7.90901654 21.8970469,7.52440152 21.8970469,7.04991681 C21.8970469,6.97120806 21.8901562,6.8951197 21.877588,6.82276782 C21.9910412,6.53403965 22.0532998,6.2196899 22.0532998,5.89073389 C22.0532998,5.79897172 22.0483016,5.70837416 22.0388391,5.61908679 L22.6876282,4.51891117 L21.4794343,3.62632868 L21.4794343,5.50146039 C21.5290276,5.5148535 21.5656646,5.55969128 21.5656646,5.61350633 L21.5656646,6.38734634 C21.5656646,6.45173999 21.513645,6.50385664 21.4492998,6.50385664 L21.250684,6.50385664 C21.1863874,6.50385664 21.1341737,6.45169147 21.1341737,6.38734634 L21.1341737,5.61350633 C21.1341737,5.55969128 21.1709077,5.5148535 21.2205495,5.50146039 L21.2205495,3.43508873 L19.4944403,2.15997782 L16.2725252,4.51886265 L16.9627553,5.64043812 C16.9550397,5.7225922 16.9508665,5.80605647 16.9508665,5.89068537 C16.9508665,6.21964137 17.0131251,6.53399113 17.1265297,6.82276782 C17.113913,6.8951197 17.1070709,6.97125659 17.1070709,7.04986829 C17.1070709,7.52430446 17.3518347,7.90896802 17.6538104,7.90896802 C17.6590027,7.90896802 17.6642435,7.90857981 17.6694842,7.90833718 C17.8449533,8.38786856 18.1273246,8.78747805 18.4761276,9.05519457 L18.4784084,9.35692763 C18.4784084,9.35692763 18.5057283,9.55792125 18.1173283,9.71791062 C17.7379541,9.87435761 16.3912192,10.2136011 15.6190775,10.5413439 C16.842363,10.9148951 18.4356572,11.4067035 18.8986413,11.8240734 C19.4719729,12.3407755 19.7072257,12.7805643 19.6496257,13.80174 C19.6415219,13.945085 19.6316226,14.0796954 19.6206073,14.205183 C19.7074683,14.2052315 19.7801599,14.2055227 19.8157293,14.2062021 C22.0977493,14.2474004 24.164218,13.0078103 24.164218,13.0078103 C24.164218,13.0078103 24.2498175,12.6469729 24.2845619,12.0449626 C24.3213444,11.4027244 24.1705264,11.1261762 23.8029439,10.8011993 Z" id="Path"></path>
            <path d="M4.64706766,13.8016915 C4.58941908,12.7805158 4.82476893,12.3407755 5.39814909,11.8240249 C5.86055088,11.4071402 7.45093354,10.9159627 8.67368518,10.5425085 C7.90202884,10.214426 6.55252796,9.87450319 6.17261993,9.71791062 C5.78421989,9.55787272 5.81158841,9.35692763 5.81158841,9.35692763 L5.81357796,9.09469452 C6.18674092,8.82760884 6.48891071,8.41193733 6.67316295,7.90838571 C6.67835521,7.90862834 6.68364451,7.90901654 6.68888529,7.90901654 C6.99081246,7.90901654 7.2355763,7.52440152 7.2355763,7.04991681 C7.2355763,6.97120806 7.22868565,6.8951197 7.21611748,6.82276782 C7.32957066,6.53403965 7.39182919,6.2196899 7.39182919,5.89073389 C7.39182919,5.79897172 7.38683104,5.70837416 7.37736852,5.61908679 L8.02615769,4.51891117 L6.81796377,3.62637721 L6.81796377,5.50150892 C6.86755708,5.51490202 6.90419401,5.55973981 6.90419401,5.61355486 L6.90419401,6.38739486 C6.90419401,6.45178852 6.85217442,6.50390517 6.78782928,6.50390517 L6.58921342,6.50390517 C6.52491681,6.50390517 6.47270311,6.45173999 6.47270311,6.38739486 L6.47270311,5.61355486 C6.47270311,5.55973981 6.5094371,5.51490202 6.55907894,5.50150892 L6.55907894,3.43513726 L4.83296978,2.16002634 L1.61105463,4.51891117 L2.30128478,5.64048664 C2.29356918,5.72264072 2.28939597,5.806105 2.28939597,5.89073389 C2.28939597,6.2196899 2.3516545,6.53403965 2.46505916,6.82281634 C2.45244246,6.89516822 2.44560033,6.97130511 2.44560033,7.04991681 C2.44560033,7.52435299 2.69036417,7.90901654 2.99233987,7.90901654 C2.99753212,7.90901654 3.0027729,7.90862834 3.00801368,7.90838571 C3.18348276,8.38791709 3.46585405,8.78752657 3.81465708,9.05524309 L3.81693779,9.35697615 C3.81693779,9.35697615 3.84425779,9.55796978 3.45585775,9.71795915 C2.97365745,9.91676911 0.928540068,10.4108582 0.487004344,10.8012478 C0.119470376,11.1262247 -0.0313961549,11.4027729 0.00553193456,12.0449626 C0.0402278399,12.6469729 0.1259243,13.0078103 0.1259243,13.0078103 C0.1259243,13.0078103 2.16308346,14.2298826 4.42579028,14.2068814 C4.47310287,14.2063962 4.56865006,14.2059109 4.67613458,14.2056197 C4.66507071,14.0798895 4.65517146,13.9451821 4.64706766,13.8016915 Z" id="Path"></path>
        </g>
    </g>
</svg>